<?xml version="1.0" encoding="utf-8"?>
<!-- Generator: Adobe Illustrator 15.0.0, SVG Export Plug-In . SVG Version: 6.00 Build 0)  -->
<!DOCTYPE svg PUBLIC "-//W3C//DTD SVG 1.1//EN" "http://www.w3.org/Graphics/SVG/1.1/DTD/svg11.dtd">
<svg version="1.1" id="Layer_1" xmlns="http://www.w3.org/2000/svg" xmlns:xlink="http://www.w3.org/1999/xlink" x="0px" y="0px"
	 width="610px" height="385px" viewBox="-50.216 -44.13 610 385" enable-background="new -50.216 -44.13 610 385"
	 xml:space="preserve">
<path fill="#5A3E8F" d="M559.784,328.87c0,6.627-5.373,12-12,12h-586c-6.627,0-12-5.373-12-12v-361c0-6.627,5.373-12,12-12h586
	c6.627,0,12,5.373,12,12V328.87z"/>
<path fill="#FFFFFF" d="M477.517,184.911c-1.077,1.08-2.826,1.08-3.905,0l-33.688-33.688c-1.078-1.079-1.078-2.827,0-3.906
	l33.688-33.688c1.079-1.079,2.826-1.079,3.905,0l33.689,33.688c1.078,1.079,1.078,2.828,0,3.906L477.517,184.911z"/>
<g>
	<path fill="#FFFFFF" d="M94.586,185.358H0V3.051h21.358v162.985h73.228V185.358z"/>
	<path fill="#FFFFFF" d="M196.038,188.411c-25.852,0-46.552-8.519-62.104-25.555c-15.554-17.036-23.329-39.198-23.329-66.49
		c0-29.324,7.923-52.716,23.773-70.177C150.227,8.73,171.797,0,199.089,0c25.172,0,45.45,8.477,60.833,25.427
		c15.384,16.952,23.075,39.115,23.075,66.49c0,29.749-7.882,53.268-23.646,70.559C243.586,179.766,222.481,188.411,196.038,188.411z
		 M197.564,19.324c-19.155,0-34.708,6.909-46.658,20.723C138.955,53.862,132.98,72.001,132.98,94.46
		c0,22.461,5.826,40.535,17.48,54.222c11.653,13.688,26.845,20.533,45.577,20.533c20.001,0,35.766-6.526,47.293-19.58
		c11.526-13.051,17.291-31.316,17.291-54.794c0-24.07-5.594-42.672-16.782-55.811C232.652,25.893,217.225,19.324,197.564,19.324z"/>
	<path fill="#FFFFFF" d="M411.4,22.375h-71.193v63.058h65.854v19.197h-65.854v80.729h-21.358V3.051H411.4V22.375z"/>
</g>
<g>
	<path fill="#FFFFFF" d="M38.466,268.165c1.641,1.441,2.902,3.104,3.784,4.984c0.88,1.883,1.321,4.186,1.321,6.906
		c0,5.486-2.052,9.971-6.156,13.453c-4.104,3.484-9.419,5.226-15.945,5.226c-3.444,0-6.617-0.62-9.52-1.862
		c-2.903-1.24-4.975-2.381-6.216-3.422l-1.201,3.902H0.029l-0.601-20.6h4.144c0.32,1.566,1,3.396,2.042,5.484
		c1.041,2.09,2.302,3.977,3.784,5.664c1.562,1.768,3.433,3.256,5.616,4.46c2.182,1.205,4.634,1.808,7.357,1.808
		c3.844,0,6.806-0.875,8.889-2.627c2.082-1.752,3.123-4.26,3.123-7.521c0-1.682-0.331-3.133-0.991-4.354
		c-0.661-1.222-1.632-2.293-2.913-3.215c-1.321-0.92-2.943-1.75-4.865-2.492c-1.922-0.739-4.064-1.471-6.426-2.19
		c-1.882-0.562-3.974-1.331-6.276-2.313c-2.303-0.979-4.274-2.133-5.916-3.453c-1.762-1.4-3.204-3.123-4.324-5.166
		c-1.122-2.041-1.682-4.442-1.682-7.207c0-4.844,1.802-8.947,5.405-12.312s8.428-5.045,14.474-5.045c2.322,0,4.694,0.3,7.117,0.901
		c2.422,0.6,4.394,1.32,5.916,2.162l1.381-3.123h4.324l0.901,19.037h-4.144c-0.841-4.262-2.653-7.729-5.436-10.402
		c-2.783-2.674-6.176-4.012-10.18-4.012c-3.284,0-5.866,0.828-7.748,2.48c-1.882,1.653-2.823,3.648-2.823,5.987
		c0,1.803,0.31,3.304,0.931,4.505s1.551,2.223,2.793,3.063c1.201,0.801,2.712,1.553,4.534,2.252
		c1.822,0.701,4.074,1.492,6.757,2.373c2.643,0.84,5.135,1.821,7.478,2.941C35.013,265.563,36.944,266.804,38.466,268.165z"/>
	<path fill="#FFFFFF" d="M118.784,283.239c-2.483,4.725-5.806,8.489-9.97,11.291c-4.165,2.803-8.949,4.204-14.354,4.204
		c-4.765,0-8.939-0.841-12.522-2.522c-3.584-1.682-6.537-3.963-8.859-6.846c-2.323-2.884-4.054-6.246-5.195-10.091
		c-1.142-3.844-1.712-7.907-1.712-12.192c0-3.844,0.61-7.615,1.832-11.319c1.221-3.703,3.012-7.036,5.375-10
		c2.282-2.843,5.114-5.136,8.498-6.877c3.383-1.741,7.177-2.612,11.381-2.612c4.324,0,8.027,0.682,11.111,2.042
		c3.083,1.361,5.585,3.224,7.507,5.586c1.841,2.242,3.213,4.886,4.114,7.929c0.901,3.043,1.352,6.346,1.352,9.908v3.965H78.125
		c0,3.893,0.37,7.424,1.111,10.594c0.741,3.171,1.912,5.959,3.514,8.367c1.562,2.328,3.604,4.164,6.126,5.508
		c2.522,1.345,5.525,2.018,9.009,2.018c3.563,0,6.637-0.836,9.219-2.506c2.583-1.671,5.075-4.68,7.478-9.025L118.784,283.239z
		 M105.511,260.657c0-2.234-0.19-4.63-0.571-7.185c-0.381-2.556-0.991-4.69-1.832-6.407c-0.921-1.836-2.183-3.333-3.784-4.49
		c-1.602-1.158-3.664-1.736-6.186-1.736c-4.204,0-7.698,1.746-10.48,5.238c-2.784,3.493-4.294,8.354-4.535,14.58H105.511z"/>
	<path fill="#FFFFFF" d="M184.628,245.583c0,2.041-0.501,3.854-1.501,5.436c-1.001,1.582-2.543,2.372-4.625,2.372
		c-2.243,0-3.955-0.579-5.135-1.741c-1.181-1.161-1.771-2.441-1.771-3.844c0-0.881,0.069-1.682,0.21-2.402
		c0.14-0.721,0.271-1.441,0.391-2.162c-1.882,0-4.084,0.762-6.606,2.282c-2.522,1.522-4.665,3.685-6.426,6.485v34.475
		c0,1.402,0.27,2.543,0.811,3.424c0.54,0.881,1.391,1.541,2.552,1.981c1,0.399,2.292,0.7,3.874,0.899
		c1.582,0.201,2.953,0.342,4.114,0.422v3.963h-31.23v-3.963c0.92-0.08,1.871-0.16,2.853-0.24c0.981-0.08,1.832-0.239,2.553-0.479
		c1.121-0.359,1.952-0.99,2.492-1.89c0.541-0.899,0.811-2.07,0.811-3.511v-36.532c0-1.239-0.291-2.459-0.871-3.658
		c-0.581-1.198-1.392-2.159-2.433-2.88c-0.761-0.479-1.662-0.83-2.703-1.051c-1.042-0.219-2.162-0.368-3.363-0.449v-3.964
		l19.699-1.321l0.841,0.842v8.348h0.3c2.482-3.242,5.245-5.705,8.288-7.387c3.042-1.683,5.826-2.522,8.348-2.522
		s4.574,0.821,6.156,2.462C183.837,240.618,184.628,242.819,184.628,245.583z"/>
	<path fill="#FFFFFF" d="M261.823,241.618c-1.803,0.321-3.514,0.973-5.135,1.952c-1.622,0.981-3.014,2.714-4.174,5.195
		c-2.363,5.366-4.805,10.961-7.328,16.786c-2.521,5.826-5.145,11.941-7.867,18.348c-0.802,1.844-1.651,4.023-2.553,6.547
		c-0.9,2.521-1.732,4.945-2.492,7.268h-4.685c-3.804-9.408-7.308-17.987-10.51-25.734c-3.204-7.748-6.527-15.686-9.97-23.813
		c-0.801-1.842-2.093-3.273-3.874-4.295c-1.782-1.021-3.574-1.672-5.375-1.951v-3.965h27.406v4.205
		c-1.201,0.039-2.704,0.289-4.505,0.75c-1.801,0.459-2.703,1.088-2.703,1.887c0,0.121,0.1,0.432,0.3,0.931
		c0.201,0.501,0.401,1.069,0.602,1.709c1.637,4.081,3.953,9.778,6.947,17.101c2.994,7.318,5.43,13.219,7.307,17.698
		c1.441-3.438,3.252-7.719,5.436-12.839c2.183-5.12,4.535-10.84,7.059-17.158c0.399-1.08,0.78-2.09,1.141-3.029
		c0.36-0.939,0.541-1.891,0.541-2.851c0-0.679-0.33-1.289-0.991-1.83c-0.66-0.538-1.452-1.01-2.372-1.409
		c-0.922-0.398-1.822-0.699-2.703-0.897c-0.881-0.2-1.602-0.341-2.162-0.421v-3.844h22.661L261.823,241.618L261.823,241.618z"/>
	<path fill="#FFFFFF" d="M306.767,297.172h-28.588v-3.963c0.922-0.08,1.871-0.16,2.854-0.24c0.98-0.08,1.832-0.239,2.553-0.479
		c1.12-0.359,1.952-0.99,2.492-1.89c0.541-0.899,0.813-2.069,0.813-3.511v-36.532c0-1.279-0.291-2.449-0.871-3.511
		c-0.582-1.059-1.393-1.947-2.434-2.668c-0.761-0.479-1.861-0.889-3.304-1.229c-1.442-0.339-2.763-0.55-3.964-0.631v-3.964
		l20.9-1.321l0.84,0.842v48.286c0,1.402,0.27,2.563,0.807,3.483c0.537,0.922,1.381,1.602,2.533,2.042
		c0.875,0.36,1.729,0.651,2.565,0.87c0.835,0.222,1.771,0.371,2.804,0.451V297.172L306.767,297.172z M299.259,213.872
		c0,2.281-0.75,4.274-2.252,5.977c-1.501,1.701-3.354,2.552-5.555,2.552c-2.043,0-3.814-0.812-5.314-2.433
		c-1.503-1.621-2.254-3.473-2.254-5.555c0-2.201,0.751-4.123,2.254-5.767c1.5-1.642,3.271-2.462,5.314-2.462
		c2.281,0,4.152,0.771,5.615,2.313C298.528,210.038,299.259,211.829,299.259,213.872z"/>
	<path fill="#FFFFFF" d="M355.134,298.734c-8.568,0-15.275-2.843-20.119-8.528c-4.846-5.685-7.268-13.313-7.268-22.883
		c0-4.162,0.65-8.057,1.952-11.681c1.301-3.623,3.192-6.916,5.675-9.88c2.361-2.844,5.325-5.135,8.889-6.877
		c3.563-1.741,7.447-2.612,11.652-2.612c5.805,0,10.529,1.392,14.174,4.174c3.643,2.783,5.465,6.577,5.465,11.382
		c0,2.002-0.479,3.773-1.441,5.314c-0.961,1.542-2.543,2.313-4.743,2.313c-2.363,0-4.195-0.599-5.496-1.795
		c-1.302-1.197-1.951-2.535-1.951-4.012c0-1.797,0.24-3.643,0.722-5.538c0.48-1.896,0.76-3.282,0.84-4.161
		c-0.719-1.236-1.787-2.063-3.205-2.482c-1.418-0.42-2.945-0.629-4.582-0.629c-1.918,0-3.744,0.41-5.481,1.23
		c-1.737,0.821-3.426,2.333-5.062,4.534c-1.479,2.003-2.678,4.705-3.596,8.108c-0.918,3.402-1.377,7.468-1.377,12.19
		c0,7.447,1.648,13.522,4.947,18.228c3.297,4.705,7.625,7.059,12.98,7.059c3.879,0,7.127-0.945,9.746-2.838
		c2.617-1.893,5.045-4.73,7.285-8.514l3.838,2.521c-2.643,4.725-6.127,8.469-10.451,11.23
		C364.202,297.353,359.737,298.734,355.134,298.734z"/>
	<path fill="#FFFFFF" d="M449.866,283.239c-2.483,4.725-5.807,8.489-9.97,11.291c-4.165,2.803-8.948,4.204-14.354,4.204
		c-4.765,0-8.938-0.841-12.521-2.522c-3.585-1.682-6.537-3.963-8.859-6.846c-2.322-2.884-4.054-6.246-5.194-10.091
		c-1.142-3.844-1.712-7.907-1.712-12.192c0-3.844,0.61-7.615,1.832-11.319c1.221-3.703,3.012-7.036,5.375-10
		c2.282-2.843,5.114-5.136,8.498-6.877c3.383-1.741,7.178-2.612,11.381-2.612c4.324,0,8.027,0.682,11.111,2.042
		c3.083,1.361,5.586,3.224,7.508,5.586c1.841,2.242,3.213,4.886,4.113,7.929s1.352,6.346,1.352,9.908v3.965h-39.219
		c0,3.893,0.37,7.424,1.111,10.594c0.739,3.171,1.911,5.959,3.514,8.367c1.562,2.328,3.604,4.164,6.126,5.508
		c2.522,1.345,5.525,2.018,9.009,2.018c3.563,0,6.637-0.836,9.219-2.506c2.583-1.671,5.075-4.68,7.479-9.025L449.866,283.239z
		 M436.593,260.657c0-2.234-0.189-4.63-0.569-7.185c-0.382-2.556-0.99-4.69-1.832-6.407c-0.922-1.836-2.184-3.333-3.783-4.49
		c-1.603-1.158-3.664-1.736-6.187-1.736c-4.205,0-7.697,1.746-10.479,5.238c-2.783,3.493-4.295,8.354-4.535,14.58H436.593z"/>
	<path fill="#FFFFFF" d="M509.464,268.165c1.642,1.441,2.902,3.104,3.783,4.984c0.88,1.883,1.321,4.186,1.321,6.906
		c0,5.486-2.054,9.971-6.156,13.453c-4.104,3.484-9.42,5.226-15.945,5.226c-3.443,0-6.617-0.62-9.52-1.862
		c-2.903-1.24-4.977-2.381-6.216-3.422l-1.201,3.902h-4.504l-0.603-20.6h4.146c0.319,1.566,1,3.396,2.042,5.484
		c1.041,2.09,2.302,3.977,3.783,5.664c1.562,1.768,3.434,3.256,5.615,4.46c2.183,1.205,4.634,1.808,7.357,1.808
		c3.844,0,6.806-0.875,8.889-2.627c2.081-1.752,3.123-4.26,3.123-7.521c0-1.682-0.331-3.133-0.991-4.354
		c-0.661-1.222-1.632-2.293-2.913-3.215c-1.32-0.92-2.942-1.75-4.864-2.492c-1.923-0.739-4.063-1.471-6.427-2.19
		c-1.883-0.562-3.975-1.331-6.275-2.313c-2.303-0.979-4.274-2.133-5.915-3.453c-1.763-1.4-3.204-3.123-4.324-5.166
		c-1.122-2.041-1.682-4.442-1.682-7.207c0-4.844,1.801-8.947,5.403-12.312c3.604-3.364,8.43-5.045,14.476-5.045
		c2.32,0,4.693,0.3,7.117,0.901c2.422,0.6,4.394,1.32,5.916,2.162l1.381-3.123h4.323l0.9,19.037h-4.144
		c-0.842-4.262-2.653-7.729-5.437-10.402s-6.177-4.012-10.18-4.012c-3.283,0-5.866,0.828-7.747,2.48
		c-1.883,1.653-2.823,3.648-2.823,5.987c0,1.803,0.311,3.304,0.931,4.505s1.553,2.223,2.794,3.063
		c1.2,0.801,2.712,1.553,4.533,2.252c1.821,0.701,4.074,1.492,6.757,2.373c2.644,0.84,5.136,1.821,7.479,2.941
		C506.01,265.563,507.941,266.804,509.464,268.165z"/>
</g>
</svg>
